<svg xmlns="http://www.w3.org/2000/svg" xmlns:xlink="http://www.w3.org/1999/xlink" width="500" zoomAndPan="magnify" viewBox="0 0 375 374.999991" height="500" preserveAspectRatio="xMidYMid meet" version="1.0"><defs><filter x="0%" y="0%" width="100%" height="100%" id="61f582857c"><feColorMatrix values="0 0 0 0 1 0 0 0 0 1 0 0 0 0 1 0 0 0 1 0" color-interpolation-filters="sRGB"/></filter><clipPath id="eff0f5f553"><path d="M 56.546875 44.59375 L 207 44.59375 L 207 330.34375 L 56.546875 330.34375 Z M 56.546875 44.59375 " clip-rule="nonzero"/></clipPath><mask id="dc6deb07c1"><g filter="url(#61f582857c)"><rect x="-37.5" width="450" fill="#000000" y="-37.499999" height="449.999989" fill-opacity="0.3"/></g></mask><clipPath id="6c73142eff"><path d="M 0.546875 0.59375 L 150.640625 0.59375 L 150.640625 286.34375 L 0.546875 286.34375 Z M 0.546875 0.59375 " clip-rule="nonzero"/></clipPath><clipPath id="cc866a82d0"><rect x="0" width="151" y="0" height="287"/></clipPath><mask id="c717e4885f"><g filter="url(#61f582857c)"><rect x="-37.5" width="450" fill="#000000" y="-37.499999" height="449.999989" fill-opacity="0.2"/></g></mask><clipPath id="274fa75158"><path d="M 0.679688 0.679688 L 134 0.679688 L 134 259 L 0.679688 259 Z M 0.679688 0.679688 " clip-rule="nonzero"/></clipPath><clipPath id="7a2fc548dd"><rect x="0" width="135" y="0" height="260"/></clipPath><clipPath id="91b75c29cd"><path d="M 164 53 L 318.296875 53 L 318.296875 319 L 164 319 Z M 164 53 " clip-rule="nonzero"/></clipPath><clipPath id="9866078abf"><path d="M 56.546875 44.59375 L 204 44.59375 L 204 330.34375 L 56.546875 330.34375 Z M 56.546875 44.59375 " clip-rule="nonzero"/></clipPath></defs><g clip-path="url(#eff0f5f553)"><g mask="url(#dc6deb07c1)"><g transform="matrix(1, 0, 0, 1, 56, 44)"><g clip-path="url(#cc866a82d0)"><g clip-path="url(#6c73142eff)"><path fill="#ed9b57" d="M 132.292969 193.125 C 133.824219 195.496094 135.152344 198.15625 136.261719 201.109375 C 140.601562 212.675781 140.125 224.492188 139.988281 226.746094 C 139.539062 233.953125 137.820312 244.332031 132.148438 252.839844 C 131.570312 253.710938 130.960938 254.535156 130.328125 255.320312 C 130.421875 255.511719 130.511719 255.71875 130.605469 255.933594 C 130.640625 256.015625 130.675781 256.101562 130.710938 256.195312 C 131.335938 257.6875 132.101562 259.949219 132.4375 262.660156 C 133.046875 267.507812 132.546875 276.585938 122.402344 282.914062 C 118.304688 285.46875 114.433594 286.363281 111.027344 286.363281 C 103.882812 286.363281 98.761719 282.425781 97.789062 281.617188 C 96.726562 280.808594 90.902344 276.050781 88.382812 267.472656 C 86.808594 268.089844 85.160156 268.546875 83.460938 268.8125 C 81.902344 269.058594 80.367188 269.179688 78.863281 269.179688 C 72.390625 269.179688 66.460938 266.929688 61.511719 262.554688 C 56.21875 257.875 52.277344 250.875 50.269531 242.878906 C 49.574219 243.117188 48.824219 243.339844 48.023438 243.515625 C 46.785156 243.792969 45.347656 243.988281 43.761719 243.988281 C 40.101562 243.988281 35.652344 242.941406 31.039062 239.433594 C 22.628906 233.035156 21.144531 224.464844 21.121094 219.304688 C 19.96875 218.941406 18.835938 218.464844 17.738281 217.867188 C 9.355469 213.3125 4.65625 203.207031 4.851562 190.136719 C 5.003906 179.820312 9.257812 170.566406 16.101562 164.558594 C 13.34375 163.164062 10.800781 161.261719 8.574219 158.890625 C 3.53125 153.515625 0.679688 146.34375 0.554688 138.691406 C 0.332031 125.445312 7.066406 111.425781 22.621094 109.96875 C 22.925781 109.941406 23.226562 109.925781 23.53125 109.90625 C 23.472656 109.78125 23.414062 109.667969 23.359375 109.542969 C 21.578125 105.574219 20.632812 101.292969 20.558594 96.835938 C 20.425781 88.6875 23.234375 80.976562 28.476562 75.113281 C 33.714844 69.25 40.757812 65.941406 48.300781 65.792969 C 48.671875 65.785156 49.039062 65.789062 49.410156 65.792969 C 49.175781 64.300781 49.046875 62.78125 49.019531 61.246094 C 48.886719 53.101562 51.695312 45.386719 56.933594 39.523438 C 62.175781 33.660156 69.214844 30.351562 76.761719 30.203125 C 77.28125 30.195312 77.804688 30.203125 78.320312 30.226562 C 78.355469 24.054688 80.335938 18.0625 84.128906 12.914062 C 89.496094 5.625 98.082031 0.816406 106.003906 0.664062 C 114.816406 0.488281 122.867188 3.695312 128.65625 9.6875 C 130.121094 11.207031 131.425781 12.878906 132.566406 14.695312 C 136.269531 20.5625 138.273438 27.914062 138.414062 36.3125 C 138.597656 47.3125 135.558594 57.75 129.863281 65.710938 C 127.003906 69.699219 123.648438 72.847656 119.957031 75.046875 C 128.929688 81.011719 134.882812 91.628906 135.082031 103.734375 C 135.230469 112.589844 132.839844 120.503906 128.167969 126.613281 C 127.554688 127.410156 126.933594 128.148438 126.296875 128.835938 C 131.589844 130.289062 136.464844 133.210938 140.503906 137.414062 C 146.632812 143.792969 150.089844 152.363281 150.242188 161.550781 C 150.46875 175.085938 143.375 187.328125 132.296875 193.125 Z M 132.292969 193.125 " fill-opacity="1" fill-rule="nonzero"/></g></g></g></g></g><g mask="url(#c717e4885f)"><g transform="matrix(1, 0, 0, 1, 175, 55)"><g clip-path="url(#7a2fc548dd)"><g clip-path="url(#274fa75158)"><path fill="#764ad3" d="M 133.960938 78.769531 L 132.527344 158.609375 L 128.425781 159.816406 L 127.808594 203.285156 L 85.765625 253.765625 L 69.757812 253.765625 L 69.964844 258.859375 L 24.023438 257.972656 L 23.199219 245.769531 L 13.351562 245.195312 L 11.710938 245.195312 C 11.671875 245.101562 11.636719 245.015625 11.601562 244.933594 C 11.507812 244.71875 11.417969 244.515625 11.328125 244.320312 C 11.960938 243.535156 12.566406 242.710938 13.148438 241.839844 C 18.816406 233.328125 20.539062 222.949219 20.984375 215.746094 C 21.121094 213.492188 21.597656 201.675781 17.257812 190.109375 C 16.152344 187.15625 14.824219 184.496094 13.289062 182.125 C 24.371094 176.332031 31.460938 164.085938 31.234375 150.550781 C 31.085938 141.363281 27.625 132.792969 21.5 126.414062 C 17.460938 122.210938 12.585938 119.289062 7.289062 117.835938 C 7.929688 117.148438 8.550781 116.40625 9.160156 115.613281 C 13.835938 109.503906 16.226562 101.589844 16.078125 92.734375 C 15.875 80.632812 9.929688 70.015625 0.953125 64.046875 C 4.640625 61.847656 8 58.703125 10.855469 54.710938 C 16.554688 46.75 19.589844 36.308594 19.410156 25.3125 C 19.265625 16.914062 17.265625 9.5625 13.5625 3.695312 L 16.246094 0.925781 L 72.050781 0.925781 L 77.757812 6.957031 L 88.628906 9.339844 L 117.339844 41.199219 L 117.339844 76.371094 L 133.957031 78.769531 Z M 133.960938 78.769531 " fill-opacity="1" fill-rule="nonzero"/></g></g></g></g><path fill="#764ad3" d="M 212.945312 198.132812 C 211.15625 198.132812 209.613281 199.253906 208.871094 200.875 L 181.144531 200.875 C 180.402344 199.253906 178.859375 198.132812 177.070312 198.132812 C 174.558594 198.132812 172.519531 200.332031 172.519531 203.042969 C 172.519531 205.753906 174.554688 207.949219 177.070312 207.949219 C 178.859375 207.949219 180.402344 206.832031 181.144531 205.210938 L 208.871094 205.210938 C 209.613281 206.832031 211.15625 207.949219 212.945312 207.949219 C 215.457031 207.949219 217.492188 205.753906 217.492188 203.042969 C 217.492188 200.332031 215.457031 198.132812 212.945312 198.132812 Z M 212.945312 198.132812 " fill-opacity="1" fill-rule="nonzero"/><path fill="#764ad3" d="M 204.746094 278.070312 C 207.253906 278.070312 209.292969 275.871094 209.292969 273.160156 C 209.292969 270.449219 207.257812 268.25 204.746094 268.25 C 204.601562 268.25 204.460938 268.261719 204.316406 268.277344 L 196.324219 257.195312 L 181.144531 257.195312 C 180.40625 255.574219 178.863281 254.453125 177.070312 254.453125 C 174.5625 254.453125 172.523438 256.652344 172.523438 259.363281 C 172.523438 262.074219 174.558594 264.273438 177.070312 264.273438 C 178.863281 264.273438 180.40625 263.152344 181.144531 261.53125 L 194.363281 261.53125 L 200.886719 270.574219 C 200.457031 271.328125 200.199219 272.210938 200.199219 273.160156 C 200.199219 275.871094 202.234375 278.070312 204.746094 278.070312 Z M 204.746094 278.070312 " fill-opacity="1" fill-rule="nonzero"/><path fill="#764ad3" d="M 214.671875 257.164062 L 226.507812 257.164062 L 236 267.40625 L 252.71875 267.40625 L 262.773438 256.550781 L 262.773438 251.167969 L 273.957031 251.167969 L 273.957031 221.59375 L 256.140625 221.59375 L 247.574219 230.835938 L 247.574219 233.644531 L 236.316406 233.644531 L 226.824219 243.890625 L 208.269531 243.890625 C 207.527344 242.269531 205.984375 241.148438 204.191406 241.148438 C 201.683594 241.148438 199.644531 243.347656 199.644531 246.058594 C 199.644531 248.769531 201.679688 250.964844 204.191406 250.964844 C 205.984375 250.964844 207.527344 249.847656 208.269531 248.226562 L 228.488281 248.226562 L 237.980469 237.980469 L 247.574219 237.980469 L 247.574219 251.167969 L 258.757812 251.167969 L 258.757812 254.757812 L 251.054688 263.070312 L 237.664062 263.070312 L 228.171875 252.828125 L 214.171875 252.828125 C 213.355469 251.503906 211.964844 250.632812 210.382812 250.632812 C 207.875 250.632812 205.835938 252.832031 205.835938 255.542969 C 205.835938 258.253906 207.871094 260.449219 210.382812 260.449219 C 212.367188 260.449219 214.050781 259.074219 214.671875 257.164062 Z M 251.59375 232.632812 L 257.804688 225.929688 L 269.9375 225.929688 L 269.9375 246.832031 L 251.59375 246.832031 Z M 251.59375 232.632812 " fill-opacity="1" fill-rule="nonzero"/><path fill="#764ad3" d="M 220.980469 222.128906 C 223.488281 222.128906 225.527344 219.929688 225.527344 217.21875 C 225.527344 214.507812 223.492188 212.3125 220.980469 212.3125 C 219.1875 212.3125 217.644531 213.429688 216.902344 215.050781 L 181.144531 215.050781 C 180.402344 213.429688 178.859375 212.3125 177.070312 212.3125 C 174.558594 212.3125 172.519531 214.507812 172.519531 217.21875 C 172.519531 219.929688 174.554688 222.128906 177.070312 222.128906 C 178.859375 222.128906 180.402344 221.007812 181.144531 219.386719 L 216.902344 219.386719 C 217.644531 221.007812 219.1875 222.128906 220.980469 222.128906 Z M 220.980469 222.128906 " fill-opacity="1" fill-rule="nonzero"/><path fill="#764ad3" d="M 177.964844 159.164062 L 195.546875 159.164062 C 196.289062 160.785156 197.832031 161.90625 199.621094 161.90625 C 202.132812 161.90625 204.167969 159.707031 204.167969 156.996094 C 204.167969 154.285156 202.132812 152.089844 199.621094 152.089844 C 197.832031 152.089844 196.289062 153.207031 195.546875 154.828125 L 177.964844 154.828125 C 177.222656 153.207031 175.679688 152.089844 173.890625 152.089844 C 171.378906 152.089844 169.34375 154.285156 169.34375 156.996094 C 169.34375 159.707031 171.378906 161.90625 173.890625 161.90625 C 175.679688 161.90625 177.222656 160.785156 177.964844 159.164062 Z M 177.964844 159.164062 " fill-opacity="1" fill-rule="nonzero"/><path fill="#764ad3" d="M 172.65625 100.492188 L 192.5625 100.492188 L 205.792969 82.089844 L 213.898438 82.089844 C 214.640625 83.714844 216.183594 84.832031 217.972656 84.832031 C 220.484375 84.832031 222.523438 82.636719 222.523438 79.921875 C 222.523438 77.210938 220.488281 75.015625 217.972656 75.015625 C 216.183594 75.015625 214.640625 76.132812 213.898438 77.757812 L 203.828125 77.757812 L 190.597656 96.15625 L 173.441406 96.15625 C 172.902344 94.09375 171.148438 92.578125 169.066406 92.578125 C 166.554688 92.578125 164.519531 94.773438 164.519531 97.484375 C 164.519531 100.195312 166.554688 102.394531 169.066406 102.394531 C 170.527344 102.394531 171.824219 101.648438 172.65625 100.492188 Z M 172.65625 100.492188 " fill-opacity="1" fill-rule="nonzero"/><path fill="#764ad3" d="M 284.125 140.425781 L 300.5625 140.425781 L 300.5625 206.019531 L 284.125 206.019531 Z M 284.125 140.425781 " fill-opacity="1" fill-rule="nonzero"/><g clip-path="url(#91b75c29cd)"><path fill="#764ad3" d="M 313.929688 140.226562 L 313.929688 138.058594 L 318.449219 138.058594 L 318.449219 133.722656 L 313.929688 133.722656 L 313.929688 131.554688 L 309.683594 131.554688 L 309.683594 129.964844 L 294.351562 129.964844 L 294.351562 95.097656 L 264.566406 61.972656 L 254.113281 60.933594 L 248.066406 53.726562 L 189.957031 53.726562 L 178.601562 68.300781 L 173.882812 68.222656 C 173.25 66.332031 171.578125 64.976562 169.609375 64.976562 C 167.097656 64.976562 165.0625 67.175781 165.0625 69.886719 C 165.0625 72.597656 167.097656 74.796875 169.609375 74.796875 C 171.210938 74.796875 172.613281 73.902344 173.421875 72.550781 L 180.441406 72.671875 L 191.828125 58.0625 L 246.28125 58.0625 L 252.1875 65.097656 L 262.714844 66.144531 L 290.332031 96.859375 L 290.332031 129.96875 L 284.117188 129.96875 L 284.449219 101.140625 L 259.699219 73.75 L 249.582031 73.75 L 242.304688 63.59375 L 198.464844 63.59375 L 183.765625 82.1875 L 173.457031 82.1875 C 172.949219 80.074219 171.179688 78.511719 169.0625 78.511719 C 166.554688 78.511719 164.515625 80.707031 164.515625 83.417969 C 164.515625 86.132812 166.550781 88.328125 169.0625 88.328125 C 170.484375 88.328125 171.75 87.625 172.582031 86.523438 L 185.617188 86.523438 L 200.316406 67.929688 L 240.332031 67.929688 L 247.613281 78.089844 L 258.007812 78.089844 L 280.410156 102.886719 L 280.105469 129.96875 L 275.003906 129.96875 L 275.003906 131.558594 L 270.757812 131.558594 L 270.757812 133.726562 L 240.660156 133.726562 L 223.582031 115.296875 L 195.261719 115.296875 L 175.585938 136.535156 C 175.0625 136.304688 174.492188 136.175781 173.890625 136.175781 C 171.378906 136.175781 169.34375 138.375 169.34375 141.085938 C 169.34375 143.796875 171.378906 145.996094 173.890625 145.996094 C 176.402344 145.996094 178.4375 143.796875 178.4375 141.085938 C 178.4375 140.628906 178.375 140.191406 178.265625 139.769531 L 196.925781 119.632812 L 221.917969 119.632812 L 238.996094 138.066406 L 270.757812 138.066406 L 270.757812 140.234375 L 275.003906 140.234375 L 275.003906 146.34375 L 270.757812 146.34375 L 270.757812 148.511719 L 235.300781 148.511719 L 225.808594 138.265625 L 205.585938 138.265625 C 204.84375 136.644531 203.300781 135.527344 201.511719 135.527344 C 199.003906 135.527344 196.964844 137.722656 196.964844 140.433594 C 196.964844 143.144531 199 145.34375 201.511719 145.34375 C 203.300781 145.34375 204.84375 144.222656 205.585938 142.601562 L 224.144531 142.601562 L 233.636719 152.847656 L 270.753906 152.847656 L 270.753906 155.015625 L 275 155.015625 L 275 161.125 L 270.753906 161.125 L 270.753906 163.292969 L 229.941406 163.292969 L 220.453125 153.046875 L 215.394531 153.046875 C 214.65625 151.425781 213.113281 150.304688 211.320312 150.304688 C 208.8125 150.304688 206.773438 152.503906 206.773438 155.214844 C 206.773438 157.925781 208.808594 160.125 211.320312 160.125 C 213.113281 160.125 214.65625 159.003906 215.394531 157.382812 L 218.785156 157.382812 L 228.277344 167.625 L 270.753906 167.625 L 270.753906 169.792969 L 275 169.792969 L 275 175.902344 L 270.753906 175.902344 L 270.753906 177.390625 L 222.976562 177.390625 L 222.976562 171.339844 L 219.933594 171.339844 L 219.933594 166.546875 L 215.917969 166.546875 L 215.917969 171.339844 L 213.113281 171.339844 L 213.113281 166.546875 L 209.097656 166.546875 L 209.097656 171.339844 L 206.992188 171.339844 L 206.992188 173.632812 L 202.71875 173.632812 L 202.71875 177.96875 L 206.992188 177.96875 L 206.992188 180.996094 L 202.71875 180.996094 L 202.71875 185.332031 L 206.992188 185.332031 L 206.992188 187.773438 L 209.097656 187.773438 L 209.097656 192.355469 L 213.113281 192.355469 L 213.113281 187.773438 L 215.917969 187.773438 L 215.917969 192.355469 L 219.933594 192.355469 L 219.933594 187.773438 L 222.976562 187.773438 L 222.976562 181.726562 L 270.753906 181.726562 L 270.753906 184.574219 L 275 184.574219 L 275 190.683594 L 270.753906 190.683594 L 270.753906 193.082031 L 243.277344 193.082031 L 233.785156 203.328125 L 230.394531 203.328125 C 229.652344 201.707031 228.109375 200.585938 226.320312 200.585938 C 223.808594 200.585938 221.773438 202.785156 221.773438 205.496094 C 221.773438 208.207031 223.804688 210.402344 226.320312 210.402344 C 228.109375 210.402344 229.652344 209.285156 230.394531 207.664062 L 235.449219 207.664062 L 244.941406 197.417969 L 270.757812 197.417969 L 270.757812 199.355469 L 275.003906 199.355469 L 275.003906 205.464844 L 270.757812 205.464844 L 270.757812 207.632812 L 249.894531 207.632812 L 230.039062 229.109375 L 217.019531 229.109375 C 216.277344 227.488281 214.734375 226.367188 212.941406 226.367188 C 210.433594 226.367188 208.394531 228.566406 208.394531 231.277344 C 208.394531 233.988281 210.429688 236.1875 212.941406 236.1875 C 214.734375 236.1875 216.277344 235.066406 217.019531 233.445312 L 231.707031 233.445312 L 251.5625 211.96875 L 270.753906 211.96875 L 270.753906 214.136719 L 275 214.136719 L 275 216.484375 L 280.058594 216.484375 L 280.058594 250.199219 L 262.363281 270.84375 L 253.058594 270.84375 L 249.609375 274.953125 L 232.878906 274.953125 L 222.574219 263.828125 L 220.109375 263.828125 C 219.398438 262.125 217.8125 260.929688 215.964844 260.929688 C 213.453125 260.929688 211.417969 263.128906 211.417969 265.839844 C 211.417969 268.550781 213.449219 270.75 215.964844 270.75 C 217.695312 270.75 219.199219 269.703125 219.96875 268.164062 L 220.90625 268.164062 L 231.214844 279.289062 L 251.386719 279.289062 L 254.835938 275.179688 L 264.113281 275.179688 L 284.074219 251.902344 L 284.074219 216.484375 L 290.324219 216.484375 L 290.324219 254.5 L 252.34375 298.570312 L 247.042969 298.570312 L 247.042969 285.804688 L 244.5 285.804688 L 244.5 282.761719 L 240.480469 282.761719 L 240.480469 285.804688 L 236.160156 285.804688 L 236.160156 282.761719 L 232.140625 282.761719 L 232.140625 285.804688 L 227.820312 285.804688 L 227.820312 282.761719 L 223.800781 282.761719 L 223.800781 285.804688 L 219.480469 285.804688 L 219.480469 282.761719 L 215.460938 282.761719 L 215.460938 285.804688 L 211.140625 285.804688 L 211.140625 282.761719 L 207.121094 282.761719 L 207.121094 285.804688 L 202.800781 285.804688 L 202.800781 282.761719 L 198.78125 282.761719 L 198.78125 285.804688 L 196.664062 285.804688 L 196.664062 298.617188 L 190.097656 298.617188 L 180.707031 279.0625 C 181.261719 278.246094 181.59375 277.242188 181.59375 276.152344 C 181.59375 273.441406 179.558594 271.246094 177.046875 271.246094 C 174.535156 271.246094 172.5 273.441406 172.5 276.152344 C 172.5 278.867188 174.535156 281.0625 177.046875 281.0625 C 177.078125 281.0625 177.109375 281.058594 177.140625 281.058594 L 187.652344 302.953125 L 196.660156 302.953125 L 196.660156 315.671875 L 198.78125 315.671875 L 198.78125 318.714844 L 202.796875 318.714844 L 202.796875 315.671875 L 207.117188 315.671875 L 207.117188 318.714844 L 211.136719 318.714844 L 211.136719 315.671875 L 215.457031 315.671875 L 215.457031 318.714844 L 219.476562 318.714844 L 219.476562 315.671875 L 223.796875 315.671875 L 223.796875 318.714844 L 227.816406 318.714844 L 227.816406 315.671875 L 232.136719 315.671875 L 232.136719 318.714844 L 236.15625 318.714844 L 236.15625 315.671875 L 240.476562 315.671875 L 240.476562 318.714844 L 244.496094 318.714844 L 244.496094 315.671875 L 247.039062 315.671875 L 247.039062 311.035156 L 260.585938 311.035156 L 304.953125 260.222656 L 304.953125 216.484375 L 309.671875 216.484375 L 309.671875 214.136719 L 313.917969 214.136719 L 313.917969 211.96875 L 318.4375 211.96875 L 318.4375 207.632812 L 313.917969 207.632812 L 313.917969 205.464844 L 309.671875 205.464844 L 309.671875 199.355469 L 313.917969 199.355469 L 313.917969 197.1875 L 318.4375 197.1875 L 318.4375 192.851562 L 313.917969 192.851562 L 313.917969 190.683594 L 309.671875 190.683594 L 309.671875 184.574219 L 313.917969 184.574219 L 313.917969 182.40625 L 318.4375 182.40625 L 318.4375 178.070312 L 313.917969 178.070312 L 313.917969 175.902344 L 309.671875 175.902344 L 309.671875 169.792969 L 313.917969 169.792969 L 313.917969 167.625 L 318.4375 167.625 L 318.4375 163.289062 L 313.917969 163.289062 L 313.917969 161.125 L 309.671875 161.125 L 309.671875 155.015625 L 313.917969 155.015625 L 313.917969 152.847656 L 318.4375 152.847656 L 318.4375 148.511719 L 313.917969 148.511719 L 313.917969 146.34375 L 309.671875 146.34375 L 309.671875 140.234375 L 313.917969 140.234375 Z M 218.964844 183.4375 L 211.015625 183.4375 L 211.015625 175.671875 L 218.964844 175.671875 Z M 225.039062 298.75 C 225.777344 300.199219 227.203125 301.179688 228.84375 301.179688 C 231.242188 301.179688 233.183594 299.082031 233.183594 296.492188 C 233.183594 293.902344 231.238281 291.808594 228.84375 291.808594 C 227.136719 291.808594 225.664062 292.871094 224.957031 294.414062 L 208.097656 294.414062 L 204.570312 298.617188 L 200.699219 298.617188 L 200.699219 290.140625 L 243.039062 290.140625 L 243.039062 298.570312 L 239.886719 298.570312 L 235.265625 304.078125 L 217.78125 304.078125 C 217.234375 302.171875 215.582031 300.789062 213.636719 300.789062 C 211.238281 300.789062 209.296875 302.882812 209.296875 305.472656 C 209.296875 308.0625 211.238281 310.160156 213.636719 310.160156 C 215 310.160156 216.214844 309.476562 217.011719 308.414062 L 237.046875 308.414062 L 241.671875 302.90625 L 243.039062 302.90625 L 243.039062 311.339844 L 200.699219 311.339844 L 200.699219 302.957031 L 206.351562 302.957031 L 209.875 298.753906 L 225.039062 298.753906 Z M 300.949219 258.503906 L 258.867188 306.695312 L 247.058594 306.695312 L 247.058594 302.902344 L 254.105469 302.902344 L 294.355469 256.199219 L 294.355469 216.480469 L 300.953125 216.480469 L 300.953125 258.5 Z M 305.667969 212.148438 L 279.023438 212.148438 L 279.023438 134.300781 L 305.667969 134.300781 Z M 305.667969 212.148438 " fill-opacity="1" fill-rule="nonzero"/></g><path fill="#764ad3" d="M 260.765625 229.515625 C 256.925781 229.515625 253.800781 232.886719 253.800781 237.035156 C 253.800781 241.179688 256.925781 244.550781 260.765625 244.550781 C 264.601562 244.550781 267.726562 241.179688 267.726562 237.035156 C 267.726562 232.886719 264.601562 229.515625 260.765625 229.515625 Z M 260.765625 240.210938 C 259.140625 240.210938 257.820312 238.785156 257.820312 237.035156 C 257.820312 235.28125 259.140625 233.855469 260.765625 233.855469 C 262.390625 233.855469 263.710938 235.28125 263.710938 237.035156 C 263.710938 238.785156 262.390625 240.210938 260.765625 240.210938 Z M 260.765625 240.210938 " fill-opacity="1" fill-rule="nonzero"/><path fill="#764ad3" d="M 249.769531 81.515625 L 233.054688 81.515625 L 223.5625 91.757812 L 214.671875 91.757812 C 214.050781 89.847656 212.367188 88.472656 210.382812 88.472656 C 207.875 88.472656 205.835938 90.671875 205.835938 93.382812 C 205.835938 96.09375 207.871094 98.289062 210.382812 98.289062 C 211.964844 98.289062 213.355469 97.417969 214.171875 96.09375 L 225.226562 96.09375 L 234.71875 85.851562 L 248.109375 85.851562 L 255.8125 94.167969 L 255.8125 97.753906 L 244.632812 97.753906 L 244.632812 110.941406 L 235.035156 110.941406 L 225.546875 100.695312 L 208.269531 100.695312 C 207.527344 99.074219 205.984375 97.957031 204.191406 97.957031 C 201.683594 97.957031 199.644531 100.152344 199.644531 102.863281 C 199.644531 105.574219 201.679688 107.773438 204.191406 107.773438 C 205.984375 107.773438 207.527344 106.65625 208.269531 105.03125 L 223.878906 105.03125 L 233.371094 115.277344 L 244.632812 115.277344 L 244.632812 118.085938 L 253.195312 127.328125 L 271.011719 127.328125 L 271.011719 104.628906 L 264.644531 97.753906 L 259.832031 97.753906 L 259.832031 92.371094 L 249.773438 81.515625 Z M 266.992188 106.425781 L 266.992188 122.996094 L 254.863281 122.996094 L 248.648438 116.292969 L 248.648438 102.09375 L 262.980469 102.09375 Z M 266.992188 106.425781 " fill-opacity="1" fill-rule="nonzero"/><path fill="#764ad3" d="M 257.820312 119.410156 C 261.660156 119.410156 264.78125 116.039062 264.78125 111.894531 C 264.78125 107.75 261.660156 104.378906 257.820312 104.378906 C 253.980469 104.378906 250.859375 107.75 250.859375 111.894531 C 250.859375 116.039062 253.980469 119.410156 257.820312 119.410156 Z M 257.820312 108.714844 C 259.445312 108.714844 260.765625 110.140625 260.765625 111.890625 C 260.765625 113.644531 259.445312 115.070312 257.820312 115.070312 C 256.195312 115.070312 254.875 113.644531 254.875 111.890625 C 254.875 110.140625 256.195312 108.714844 257.820312 108.714844 Z M 257.820312 108.714844 " fill-opacity="1" fill-rule="nonzero"/><path fill="#ed9b57" d="M 120.28125 174.464844 C 120.28125 175.785156 119.285156 176.859375 118.0625 176.859375 C 116.839844 176.859375 115.84375 175.785156 115.84375 174.464844 C 115.84375 173.148438 116.839844 172.070312 118.0625 172.070312 C 119.289062 172.070312 120.28125 173.144531 120.28125 174.464844 Z M 120.28125 174.464844 " fill-opacity="1" fill-rule="nonzero"/><path fill="#ed9b57" d="M 94.609375 137.457031 C 94.609375 138.78125 93.613281 139.851562 92.390625 139.851562 C 91.164062 139.851562 90.171875 138.78125 90.171875 137.457031 C 90.171875 136.132812 91.167969 135.0625 92.390625 135.0625 C 93.613281 135.0625 94.609375 136.136719 94.609375 137.457031 Z M 94.609375 137.457031 " fill-opacity="1" fill-rule="nonzero"/><path fill="#ed9b57" d="M 113.726562 130.28125 C 113.726562 131.605469 112.730469 132.679688 111.507812 132.679688 C 110.285156 132.679688 109.289062 131.605469 109.289062 130.28125 C 109.289062 128.960938 110.285156 127.886719 111.507812 127.886719 C 112.734375 127.886719 113.726562 128.960938 113.726562 130.28125 Z M 113.726562 130.28125 " fill-opacity="1" fill-rule="nonzero"/><path fill="#ed9b57" d="M 115.875 195.203125 C 115.566406 196.480469 114.351562 197.25 113.164062 196.917969 C 111.976562 196.582031 111.269531 195.273438 111.578125 193.992188 C 111.886719 192.714844 113.101562 191.949219 114.289062 192.277344 C 115.472656 192.613281 116.183594 193.921875 115.875 195.203125 Z M 115.875 195.203125 " fill-opacity="1" fill-rule="nonzero"/><path fill="#ed9b57" d="M 82.359375 173.519531 C 82.050781 174.796875 80.839844 175.566406 79.652344 175.234375 C 78.464844 174.898438 77.753906 173.59375 78.0625 172.308594 C 78.371094 171.03125 79.585938 170.265625 80.769531 170.597656 C 81.957031 170.929688 82.667969 172.238281 82.359375 173.519531 Z M 82.359375 173.519531 " fill-opacity="1" fill-rule="nonzero"/><path fill="#ed9b57" d="M 146.191406 184.9375 C 146.191406 185.253906 146.132812 185.558594 146.019531 185.851562 C 145.910156 186.148438 145.75 186.40625 145.539062 186.628906 C 145.332031 186.855469 145.09375 187.027344 144.820312 187.148438 C 144.546875 187.269531 144.265625 187.332031 143.972656 187.332031 C 143.675781 187.332031 143.394531 187.269531 143.121094 187.148438 C 142.847656 187.027344 142.609375 186.855469 142.402344 186.628906 C 142.191406 186.40625 142.03125 186.148438 141.921875 185.851562 C 141.808594 185.558594 141.75 185.253906 141.75 184.9375 C 141.75 184.617188 141.808594 184.3125 141.921875 184.019531 C 142.03125 183.726562 142.191406 183.464844 142.402344 183.242188 C 142.609375 183.015625 142.847656 182.84375 143.121094 182.722656 C 143.394531 182.601562 143.675781 182.539062 143.972656 182.539062 C 144.265625 182.539062 144.546875 182.601562 144.820312 182.722656 C 145.09375 182.84375 145.332031 183.015625 145.539062 183.242188 C 145.75 183.464844 145.910156 183.726562 146.019531 184.019531 C 146.132812 184.3125 146.191406 184.617188 146.191406 184.9375 Z M 146.191406 184.9375 " fill-opacity="1" fill-rule="nonzero"/><path fill="#ed9b57" d="M 114.019531 240.316406 C 114.019531 241.640625 113.023438 242.714844 111.800781 242.714844 C 110.578125 242.714844 109.582031 241.640625 109.582031 240.316406 C 109.582031 238.996094 110.578125 237.921875 111.800781 237.921875 C 113.027344 237.921875 114.019531 238.996094 114.019531 240.316406 Z M 114.019531 240.316406 " fill-opacity="1" fill-rule="nonzero"/><path fill="#ed9b57" d="M 104.273438 224.511719 C 104.273438 225.835938 103.277344 226.910156 102.054688 226.910156 C 100.832031 226.910156 99.835938 225.835938 99.835938 224.511719 C 99.835938 223.191406 100.828125 222.117188 102.054688 222.117188 C 103.28125 222.117188 104.273438 223.191406 104.273438 224.511719 Z M 104.273438 224.511719 " fill-opacity="1" fill-rule="nonzero"/><path fill="#ed9b57" d="M 87.765625 227.882812 C 87.765625 228.203125 87.710938 228.507812 87.597656 228.800781 C 87.484375 229.09375 87.324219 229.355469 87.117188 229.578125 C 86.90625 229.804688 86.667969 229.976562 86.394531 230.097656 C 86.125 230.21875 85.839844 230.28125 85.546875 230.28125 C 85.253906 230.28125 84.96875 230.21875 84.699219 230.097656 C 84.425781 229.976562 84.183594 229.804688 83.976562 229.578125 C 83.769531 229.355469 83.609375 229.09375 83.496094 228.800781 C 83.382812 228.507812 83.328125 228.203125 83.328125 227.882812 C 83.328125 227.566406 83.382812 227.261719 83.496094 226.96875 C 83.609375 226.675781 83.769531 226.414062 83.976562 226.191406 C 84.183594 225.964844 84.425781 225.792969 84.699219 225.671875 C 84.96875 225.550781 85.253906 225.488281 85.546875 225.488281 C 85.839844 225.488281 86.125 225.550781 86.394531 225.671875 C 86.667969 225.792969 86.90625 225.964844 87.117188 226.191406 C 87.324219 226.414062 87.484375 226.675781 87.597656 226.96875 C 87.710938 227.261719 87.765625 227.566406 87.765625 227.882812 Z M 87.765625 227.882812 " fill-opacity="1" fill-rule="nonzero"/><path fill="#ed9b57" d="M 79.085938 190.019531 C 79.085938 191.339844 78.089844 192.414062 76.867188 192.414062 C 75.644531 192.414062 74.648438 191.339844 74.648438 190.019531 C 74.648438 188.695312 75.640625 187.621094 76.867188 187.621094 C 78.09375 187.621094 79.085938 188.695312 79.085938 190.019531 Z M 79.085938 190.019531 " fill-opacity="1" fill-rule="nonzero"/><path fill="#ed9b57" d="M 87.765625 245.105469 C 87.765625 246.429688 86.773438 247.503906 85.546875 247.503906 C 84.320312 247.503906 83.328125 246.429688 83.328125 245.105469 C 83.328125 243.785156 84.320312 242.714844 85.546875 242.714844 C 86.773438 242.714844 87.765625 243.785156 87.765625 245.105469 Z M 87.765625 245.105469 " fill-opacity="1" fill-rule="nonzero"/><path fill="#ed9b57" d="M 125.667969 261.355469 C 124.441406 261.355469 123.449219 262.429688 123.449219 263.753906 C 123.449219 265.078125 124.441406 266.148438 125.667969 266.148438 C 126.890625 266.148438 127.886719 265.078125 127.886719 263.753906 C 127.886719 262.429688 126.890625 261.355469 125.667969 261.355469 Z M 125.667969 261.355469 " fill-opacity="1" fill-rule="nonzero"/><path fill="#ed9b57" d="M 144.421875 290.351562 C 144.421875 289.03125 143.425781 287.957031 142.203125 287.957031 C 140.976562 287.957031 139.984375 289.03125 139.984375 290.351562 C 139.984375 291.675781 140.976562 292.75 142.203125 292.75 C 143.425781 292.75 144.421875 291.675781 144.421875 290.351562 Z M 144.421875 290.351562 " fill-opacity="1" fill-rule="nonzero"/><path fill="#ed9b57" d="M 125.667969 286.421875 C 124.441406 286.421875 123.449219 287.492188 123.449219 288.816406 C 123.449219 290.140625 124.441406 291.210938 125.667969 291.210938 C 126.890625 291.210938 127.886719 290.140625 127.886719 288.816406 C 127.886719 287.492188 126.890625 286.421875 125.667969 286.421875 Z M 125.667969 286.421875 " fill-opacity="1" fill-rule="nonzero"/><path fill="#ed9b57" d="M 140.484375 253.417969 C 140.484375 253.738281 140.425781 254.042969 140.3125 254.335938 C 140.203125 254.628906 140.039062 254.890625 139.832031 255.113281 C 139.625 255.339844 139.382812 255.511719 139.113281 255.632812 C 138.839844 255.753906 138.558594 255.816406 138.261719 255.816406 C 137.96875 255.816406 137.6875 255.753906 137.414062 255.632812 C 137.140625 255.511719 136.902344 255.339844 136.695312 255.113281 C 136.484375 254.890625 136.324219 254.628906 136.214844 254.335938 C 136.101562 254.042969 136.042969 253.738281 136.042969 253.417969 C 136.042969 253.101562 136.101562 252.796875 136.214844 252.503906 C 136.324219 252.210938 136.484375 251.949219 136.695312 251.726562 C 136.902344 251.5 137.140625 251.328125 137.414062 251.207031 C 137.6875 251.085938 137.96875 251.023438 138.261719 251.023438 C 138.558594 251.023438 138.839844 251.085938 139.113281 251.207031 C 139.382812 251.328125 139.625 251.5 139.832031 251.726562 C 140.039062 251.949219 140.203125 252.210938 140.3125 252.503906 C 140.425781 252.796875 140.484375 253.101562 140.484375 253.417969 Z M 140.484375 253.417969 " fill-opacity="1" fill-rule="nonzero"/><path fill="#ed9b57" d="M 167.375 291.210938 C 167.375 292.53125 168.367188 293.605469 169.59375 293.605469 C 170.816406 293.605469 171.8125 292.53125 171.8125 291.210938 C 171.8125 289.886719 170.816406 288.8125 169.59375 288.8125 C 168.367188 288.8125 167.375 289.886719 167.375 291.210938 Z M 167.375 291.210938 " fill-opacity="1" fill-rule="nonzero"/><path fill="#ed9b57" d="M 161.722656 270.757812 C 161.722656 272.078125 162.71875 273.152344 163.941406 273.152344 C 165.167969 273.152344 166.160156 272.078125 166.160156 270.757812 C 166.160156 269.433594 165.167969 268.359375 163.941406 268.359375 C 162.71875 268.359375 161.722656 269.433594 161.722656 270.757812 Z M 161.722656 270.757812 " fill-opacity="1" fill-rule="nonzero"/><path fill="#ed9b57" d="M 148.976562 214.816406 C 147.75 214.816406 146.753906 215.886719 146.753906 217.210938 C 146.753906 218.535156 147.75 219.605469 148.976562 219.605469 C 150.199219 219.605469 151.195312 218.535156 151.195312 217.210938 C 151.195312 215.886719 150.199219 214.816406 148.976562 214.816406 Z M 148.976562 214.816406 " fill-opacity="1" fill-rule="nonzero"/><path fill="#ed9b57" d="M 153.410156 238.203125 C 154.636719 238.203125 155.628906 237.128906 155.628906 235.804688 C 155.628906 234.484375 154.636719 233.410156 153.410156 233.410156 C 152.1875 233.410156 151.191406 234.484375 151.191406 235.804688 C 151.191406 237.128906 152.1875 238.203125 153.410156 238.203125 Z M 153.410156 238.203125 " fill-opacity="1" fill-rule="nonzero"/><path fill="#ed9b57" d="M 129.175781 222.121094 C 129.175781 223.441406 130.171875 224.515625 131.394531 224.515625 C 132.621094 224.515625 133.617188 223.441406 133.617188 222.121094 C 133.617188 220.796875 132.621094 219.722656 131.394531 219.722656 C 130.171875 219.722656 129.175781 220.796875 129.175781 222.121094 Z M 129.175781 222.121094 " fill-opacity="1" fill-rule="nonzero"/><path fill="#ed9b57" d="M 165.222656 189.90625 C 165.222656 191.226562 166.214844 192.300781 167.441406 192.300781 C 168.667969 192.300781 169.660156 191.226562 169.660156 189.90625 C 169.660156 188.582031 168.667969 187.507812 167.441406 187.507812 C 166.214844 187.507812 165.222656 188.582031 165.222656 189.90625 Z M 165.222656 189.90625 " fill-opacity="1" fill-rule="nonzero"/><path fill="#ed9b57" d="M 138.996094 156.984375 C 138.996094 157.304688 138.941406 157.609375 138.828125 157.902344 C 138.714844 158.195312 138.554688 158.457031 138.347656 158.679688 C 138.140625 158.90625 137.898438 159.078125 137.625 159.199219 C 137.355469 159.320312 137.070312 159.382812 136.777344 159.382812 C 136.484375 159.382812 136.199219 159.320312 135.929688 159.199219 C 135.65625 159.078125 135.417969 158.90625 135.207031 158.679688 C 135 158.457031 134.839844 158.195312 134.726562 157.902344 C 134.613281 157.609375 134.558594 157.304688 134.558594 156.984375 C 134.558594 156.667969 134.613281 156.363281 134.726562 156.070312 C 134.839844 155.777344 135 155.515625 135.207031 155.292969 C 135.417969 155.066406 135.65625 154.894531 135.929688 154.773438 C 136.199219 154.652344 136.484375 154.589844 136.777344 154.589844 C 137.070312 154.589844 137.355469 154.652344 137.625 154.773438 C 137.898438 154.894531 138.140625 155.066406 138.347656 155.292969 C 138.554688 155.515625 138.714844 155.777344 138.828125 156.070312 C 138.941406 156.363281 138.996094 156.667969 138.996094 156.984375 Z M 138.996094 156.984375 " fill-opacity="1" fill-rule="nonzero"/><path fill="#ed9b57" d="M 126.09375 98.589844 C 126.09375 99.910156 127.085938 100.984375 128.3125 100.984375 C 129.539062 100.984375 130.53125 99.910156 130.53125 98.589844 C 130.53125 97.265625 129.539062 96.191406 128.3125 96.191406 C 127.085938 96.191406 126.09375 97.265625 126.09375 98.589844 Z M 126.09375 98.589844 " fill-opacity="1" fill-rule="nonzero"/><path fill="#ed9b57" d="M 152.046875 69.804688 C 152.046875 71.128906 153.042969 72.199219 154.265625 72.199219 C 155.492188 72.199219 156.484375 71.128906 156.484375 69.804688 C 156.484375 68.480469 155.492188 67.410156 154.265625 67.410156 C 153.042969 67.410156 152.046875 68.480469 152.046875 69.804688 Z M 152.046875 69.804688 " fill-opacity="1" fill-rule="nonzero"/><path fill="#ed9b57" d="M 137.683594 110.738281 C 137.683594 112.058594 138.675781 113.132812 139.902344 113.132812 C 141.125 113.132812 142.121094 112.058594 142.121094 110.738281 C 142.121094 109.414062 141.125 108.339844 139.902344 108.339844 C 138.675781 108.339844 137.683594 109.414062 137.683594 110.738281 Z M 137.683594 110.738281 " fill-opacity="1" fill-rule="nonzero"/><path fill="#ed9b57" d="M 154.265625 105.253906 C 154.265625 106.574219 155.261719 107.648438 156.484375 107.648438 C 157.710938 107.648438 158.707031 106.574219 158.707031 105.253906 C 158.707031 103.929688 157.710938 102.855469 156.484375 102.855469 C 155.261719 102.855469 154.265625 103.929688 154.265625 105.253906 Z M 154.265625 105.253906 " fill-opacity="1" fill-rule="nonzero"/><path fill="#ed9b57" d="M 148.921875 135.0625 C 148.921875 135.382812 148.863281 135.6875 148.75 135.980469 C 148.640625 136.273438 148.476562 136.535156 148.269531 136.757812 C 148.0625 136.984375 147.820312 137.15625 147.550781 137.277344 C 147.277344 137.398438 146.996094 137.460938 146.699219 137.460938 C 146.40625 137.460938 146.125 137.398438 145.851562 137.277344 C 145.578125 137.15625 145.339844 136.984375 145.132812 136.757812 C 144.921875 136.535156 144.761719 136.273438 144.652344 135.980469 C 144.539062 135.6875 144.480469 135.382812 144.480469 135.0625 C 144.480469 134.746094 144.539062 134.441406 144.652344 134.148438 C 144.761719 133.851562 144.921875 133.59375 145.132812 133.371094 C 145.339844 133.144531 145.578125 132.972656 145.851562 132.851562 C 146.125 132.726562 146.40625 132.667969 146.699219 132.667969 C 146.996094 132.667969 147.277344 132.726562 147.550781 132.851562 C 147.820312 132.972656 148.0625 133.144531 148.269531 133.371094 C 148.476562 133.59375 148.640625 133.851562 148.75 134.148438 C 148.863281 134.441406 148.921875 134.746094 148.921875 135.0625 Z M 148.921875 135.0625 " fill-opacity="1" fill-rule="nonzero"/><path fill="#ed9b57" d="M 161.53125 151.523438 C 161.53125 152.847656 162.527344 153.917969 163.753906 153.917969 C 164.976562 153.917969 165.972656 152.847656 165.972656 151.523438 C 165.972656 150.199219 164.976562 149.128906 163.753906 149.128906 C 162.527344 149.128906 161.53125 150.199219 161.53125 151.523438 Z M 161.53125 151.523438 " fill-opacity="1" fill-rule="nonzero"/><path fill="#ed9b57" d="M 168.191406 133.769531 C 168.191406 134.085938 168.136719 134.390625 168.023438 134.683594 C 167.910156 134.976562 167.75 135.238281 167.542969 135.460938 C 167.332031 135.6875 167.09375 135.859375 166.820312 135.980469 C 166.550781 136.101562 166.265625 136.164062 165.972656 136.164062 C 165.675781 136.164062 165.394531 136.101562 165.121094 135.980469 C 164.851562 135.859375 164.609375 135.6875 164.402344 135.460938 C 164.195312 135.238281 164.035156 134.976562 163.921875 134.683594 C 163.808594 134.390625 163.753906 134.085938 163.753906 133.769531 C 163.753906 133.449219 163.808594 133.144531 163.921875 132.851562 C 164.035156 132.558594 164.195312 132.296875 164.402344 132.074219 C 164.609375 131.847656 164.851562 131.675781 165.121094 131.554688 C 165.394531 131.433594 165.675781 131.371094 165.972656 131.371094 C 166.265625 131.371094 166.550781 131.433594 166.820312 131.554688 C 167.09375 131.675781 167.332031 131.847656 167.542969 132.074219 C 167.75 132.296875 167.910156 132.558594 168.023438 132.851562 C 168.136719 133.144531 168.191406 133.449219 168.191406 133.769531 Z M 168.191406 133.769531 " fill-opacity="1" fill-rule="nonzero"/><path fill="#ed9b57" d="M 102.949219 271.238281 C 102.949219 271.554688 102.890625 271.859375 102.78125 272.152344 C 102.667969 272.449219 102.507812 272.707031 102.296875 272.929688 C 102.089844 273.15625 101.851562 273.328125 101.578125 273.449219 C 101.308594 273.574219 101.023438 273.632812 100.730469 273.632812 C 100.433594 273.632812 100.152344 273.574219 99.878906 273.449219 C 99.609375 273.328125 99.367188 273.15625 99.160156 272.929688 C 98.953125 272.707031 98.792969 272.449219 98.679688 272.152344 C 98.566406 271.859375 98.511719 271.554688 98.511719 271.238281 C 98.511719 270.917969 98.566406 270.613281 98.679688 270.320312 C 98.792969 270.027344 98.953125 269.769531 99.160156 269.542969 C 99.367188 269.320312 99.609375 269.144531 99.878906 269.023438 C 100.152344 268.902344 100.433594 268.839844 100.730469 268.839844 C 101.023438 268.839844 101.308594 268.902344 101.578125 269.023438 C 101.851562 269.144531 102.089844 269.320312 102.296875 269.542969 C 102.507812 269.769531 102.667969 270.027344 102.78125 270.320312 C 102.890625 270.613281 102.949219 270.917969 102.949219 271.238281 Z M 102.949219 271.238281 " fill-opacity="1" fill-rule="nonzero"/><path fill="#ed9b57" d="M 198.363281 206.65625 C 198.320312 209.054688 197.96875 211.386719 197.347656 213.605469 L 205.648438 213.605469 C 206.109375 211.351562 206.371094 209.027344 206.402344 206.65625 Z M 198.363281 206.65625 " fill-opacity="1" fill-rule="nonzero"/><path fill="#ed9b57" d="M 184.328125 170.589844 C 186.578125 167.652344 188.289062 164.289062 189.453125 160.605469 L 180.78125 160.605469 C 177.089844 168.660156 170.289062 171.679688 168.183594 172.441406 C 167.792969 172.527344 167.402344 172.617188 167.015625 172.71875 C 166.863281 172.757812 166.71875 172.808594 166.574219 172.863281 C 163.460938 173.410156 158.804688 172.878906 155.707031 169.898438 C 152.675781 166.96875 151.746094 162.210938 152.949219 155.746094 C 153.386719 153.398438 151.976562 151.113281 149.804688 150.644531 C 147.628906 150.171875 145.511719 151.691406 145.074219 154.039062 C 142.828125 166.109375 146.707031 172.839844 150.355469 176.363281 C 154.363281 180.226562 159.582031 181.746094 164.246094 181.746094 C 166.398438 181.746094 168.425781 181.421875 170.167969 180.855469 C 171.460938 180.597656 172.78125 180.453125 174.109375 180.425781 C 180.476562 180.304688 186.503906 182.859375 191.085938 187.632812 C 194.238281 190.914062 196.4375 194.972656 197.546875 199.421875 L 205.796875 199.421875 C 204.550781 192.585938 201.40625 186.328125 196.664062 181.386719 C 192.625 177.183594 187.746094 174.265625 182.457031 172.808594 C 183.089844 172.121094 183.714844 171.378906 184.328125 170.585938 Z M 184.328125 170.589844 " fill-opacity="1" fill-rule="nonzero"/><path fill="#ed9b57" d="M 186.316406 76.730469 L 192.933594 68.359375 C 192.308594 66.09375 191.511719 63.953125 190.542969 61.953125 L 184.773438 69.355469 C 185.527344 71.625 186.042969 74.089844 186.3125 76.734375 Z M 186.316406 76.730469 " fill-opacity="1" fill-rule="nonzero"/><path fill="#ed9b57" d="M 190.96875 153.382812 C 191.179688 151.542969 191.277344 149.652344 191.242188 147.710938 C 191.148438 142.011719 189.773438 136.644531 187.414062 131.933594 L 181.390625 138.433594 C 182.511719 141.351562 183.15625 144.53125 183.214844 147.867188 C 183.246094 149.855469 183.121094 151.6875 182.875 153.382812 L 190.972656 153.382812 Z M 190.96875 153.382812 " fill-opacity="1" fill-rule="nonzero"/><g clip-path="url(#9866078abf)"><path fill="#ed9b57" d="M 203.363281 220.835938 L 194.113281 220.835938 C 191.363281 225.109375 187.414062 228.488281 182.648438 230.34375 C 178.816406 227.03125 174.253906 224.871094 169.046875 223.941406 C 168.234375 215.777344 164.832031 208.246094 159.292969 202.476562 C 153.039062 195.964844 144.808594 192.484375 136.121094 192.640625 C 134.347656 192.675781 132.367188 192.921875 130.324219 193.410156 C 132.546875 187.484375 133.910156 181.058594 133.820312 175.703125 C 133.707031 168.984375 131.894531 162.601562 128.554688 157.046875 C 131.332031 152.5 132.933594 147.21875 133.179688 141.761719 C 141.957031 125.90625 148.949219 124.371094 154.59375 123.128906 C 156.007812 122.816406 157.476562 122.636719 158.953125 122.609375 C 159.382812 122.605469 159.789062 122.609375 160.167969 122.621094 L 160.242188 122.621094 C 160.675781 122.636719 161.105469 122.671875 161.53125 122.710938 C 161.5625 122.714844 161.59375 122.71875 161.628906 122.71875 C 168.203125 123.382812 173.945312 126.878906 177.847656 132.042969 L 183.554688 125.882812 C 181.425781 123.210938 178.925781 120.890625 176.121094 119.03125 C 179.808594 116.828125 183.167969 113.6875 186.023438 109.691406 C 187.726562 107.3125 189.1875 104.710938 190.402344 101.9375 L 181.253906 101.9375 C 180.753906 102.785156 180.226562 103.605469 179.664062 104.390625 C 175.285156 110.511719 169.460938 113.949219 163.265625 114.070312 C 162.890625 114.078125 162.527344 114.074219 162.183594 114.058594 C 162.09375 114.050781 162.003906 114.046875 161.914062 114.046875 C 161.433594 114.007812 160.945312 113.976562 160.464844 113.957031 L 160.390625 113.957031 C 159.886719 113.9375 159.355469 113.933594 158.808594 113.945312 C 156.832031 113.984375 154.871094 114.21875 152.984375 114.636719 C 146.257812 116.117188 139.113281 118.578125 131.332031 129.292969 C 131.214844 128.957031 131.089844 128.617188 130.957031 128.285156 C 127.832031 120.394531 121.65625 114.234375 114.199219 111.441406 C 113.582031 109.398438 113.25 107.261719 113.210938 105.074219 C 113.113281 99.246094 115.125 93.726562 118.875 89.53125 C 122.625 85.332031 127.664062 82.964844 133.0625 82.859375 C 134.03125 82.839844 135 82.894531 135.953125 83.027344 C 141.4375 83.757812 146.46875 86.960938 149.753906 91.796875 C 151.066406 93.730469 153.578125 94.148438 155.371094 92.730469 C 157.15625 91.320312 157.542969 88.605469 156.234375 86.675781 C 152.792969 81.609375 147.984375 77.832031 142.5625 75.824219 C 142.109375 69.851562 144.410156 65.238281 146.578125 62.296875 C 150.515625 56.957031 156.691406 53.433594 162.308594 53.320312 C 169.085938 53.183594 174.949219 55.476562 179.253906 59.9375 C 180.019531 60.730469 180.722656 61.59375 181.371094 62.507812 L 186.640625 55.753906 C 186.0625 55.03125 185.453125 54.339844 184.816406 53.675781 C 179.03125 47.675781 170.976562 44.46875 162.167969 44.640625 C 154.246094 44.792969 145.65625 49.601562 140.289062 56.886719 C 136.496094 62.035156 134.515625 68.027344 134.480469 74.199219 C 133.964844 74.179688 133.441406 74.171875 132.921875 74.179688 C 125.375 74.328125 118.335938 77.640625 113.09375 83.5 C 107.855469 89.367188 105.046875 97.078125 105.179688 105.222656 C 105.207031 106.761719 105.335938 108.277344 105.570312 109.773438 C 105.199219 109.765625 104.832031 109.761719 104.460938 109.769531 C 96.914062 109.914062 89.875 113.226562 84.632812 119.089844 C 79.394531 124.957031 76.585938 132.671875 76.71875 140.816406 C 76.796875 145.273438 77.738281 149.546875 79.519531 153.519531 C 79.574219 153.644531 79.632812 153.761719 79.691406 153.882812 C 79.386719 153.898438 79.085938 153.921875 78.78125 153.949219 C 63.230469 155.40625 56.492188 169.425781 56.714844 182.667969 C 56.839844 190.320312 59.691406 197.496094 64.734375 202.871094 C 66.960938 205.246094 69.507812 207.148438 72.261719 208.542969 C 65.417969 214.546875 61.164062 223.804688 61.015625 234.117188 C 60.820312 247.1875 65.519531 257.296875 73.902344 261.847656 C 74.996094 262.441406 76.128906 262.921875 77.28125 263.285156 C 77.304688 268.449219 78.792969 277.015625 87.199219 283.414062 C 91.8125 286.921875 96.265625 287.964844 99.925781 287.964844 C 101.507812 287.964844 102.945312 287.773438 104.183594 287.496094 C 104.984375 287.316406 105.734375 287.097656 106.429688 286.859375 C 108.4375 294.851562 112.378906 301.855469 117.671875 306.535156 C 122.625 310.910156 128.550781 313.160156 135.023438 313.160156 C 136.53125 313.160156 138.066406 313.035156 139.621094 312.792969 C 141.324219 312.527344 142.96875 312.070312 144.542969 311.457031 C 147.0625 320.03125 152.886719 324.785156 153.953125 325.597656 C 154.925781 326.40625 160.042969 330.34375 167.1875 330.34375 C 170.59375 330.34375 174.464844 329.445312 178.566406 326.886719 C 188.707031 320.5625 189.203125 311.488281 188.601562 306.636719 C 188.503906 305.847656 188.363281 305.101562 188.207031 304.394531 L 186.863281 304.394531 L 181.179688 292.5625 C 177.722656 297.351562 172.566406 300.96875 164.878906 301.117188 C 162.660156 301.160156 160.894531 303.136719 160.933594 305.53125 C 160.972656 307.898438 162.761719 309.789062 164.949219 309.789062 L 165.023438 309.789062 C 170.65625 309.679688 175.730469 308.121094 180.078125 305.214844 C 180.605469 306.949219 180.996094 309.253906 180.542969 311.582031 C 179.941406 314.652344 177.925781 317.273438 174.550781 319.382812 C 166.15625 324.617188 159.328125 319.117188 158.867188 318.734375 C 158.75 318.628906 158.726562 318.609375 158.589844 318.511719 C 158.347656 318.335938 153.203125 314.441406 151.785156 307.09375 C 157.378906 302.289062 160.941406 295.097656 160.855469 287.445312 C 160.789062 282.003906 158.125 274.707031 152.308594 270.660156 C 148.277344 267.851562 141.230469 265.558594 130.554688 270.597656 C 128.523438 271.558594 127.59375 274.113281 128.484375 276.308594 C 129.371094 278.507812 131.742188 279.507812 133.773438 278.546875 C 137.859375 276.617188 143.644531 274.945312 147.957031 277.949219 C 151.472656 280.398438 152.792969 285.039062 152.820312 287.5625 C 152.917969 295.625 146.613281 302.9375 138.46875 304.214844 C 132.421875 305.164062 127.136719 303.6875 122.769531 299.828125 C 117.140625 294.859375 113.5 286.234375 113.023438 276.757812 C 112.539062 267.09375 114.542969 258.242188 118.984375 250.453125 C 122.3125 244.617188 125.855469 241.566406 125.945312 241.484375 C 126.039062 241.40625 126.125 241.324219 126.207031 241.246094 C 130.261719 242.398438 134.492188 242.058594 138.050781 240.121094 C 142.777344 237.546875 145.507812 232.546875 145.550781 226.410156 C 145.566406 224.015625 143.78125 222.058594 141.5625 222.042969 L 141.53125 222.042969 C 139.328125 222.042969 137.53125 223.964844 137.511719 226.34375 C 137.496094 229.242188 136.457031 231.273438 134.429688 232.378906 C 131.609375 233.914062 127.480469 233.289062 124.382812 230.863281 C 121.875 228.890625 117.886719 224.058594 119.359375 213.792969 C 119.675781 211.570312 120.53125 209.6875 121.71875 208.109375 C 122.226562 207.59375 122.734375 207.03125 123.230469 206.425781 C 126.9375 202.910156 132.4375 201.390625 136.265625 201.316406 C 142.808594 201.1875 149.003906 203.820312 153.714844 208.726562 C 158.421875 213.628906 161.082031 220.21875 161.199219 227.28125 C 161.347656 236.144531 157.398438 244.457031 150.636719 249.515625 C 148.8125 250.878906 148.359375 253.578125 149.625 255.550781 C 150.402344 256.765625 151.652344 257.414062 152.925781 257.414062 C 153.714844 257.414062 154.511719 257.164062 155.210938 256.644531 C 162.738281 251.011719 167.636719 242.339844 168.90625 232.746094 C 176.339844 234.480469 181.734375 239.71875 184.972656 248.351562 C 185.90625 250.835938 186.570312 253.355469 187.046875 255.757812 L 195.238281 255.757812 C 194.667969 252.378906 193.78125 248.726562 192.417969 245.097656 C 191.3125 242.144531 189.984375 239.480469 188.449219 237.105469 C 195.09375 233.636719 200.300781 227.84375 203.355469 220.84375 Z M 105 277.222656 C 105.015625 277.542969 105.039062 277.867188 105.058594 278.1875 C 102.402344 279.359375 97.359375 280.53125 91.828125 276.324219 C 86.671875 272.402344 85.492188 267.289062 85.328125 264 C 88.6875 263.558594 91.917969 262.191406 94.648438 259.933594 C 100.914062 254.75 103.414062 246.085938 101.519531 236.179688 C 101.070312 233.832031 98.945312 232.324219 96.769531 232.808594 C 94.601562 233.292969 93.203125 235.589844 93.652344 237.933594 C 94.921875 244.558594 93.542969 249.925781 89.761719 253.054688 C 86.347656 255.878906 81.542969 256.292969 77.515625 254.105469 C 71.992188 251.105469 68.90625 243.867188 69.050781 234.253906 C 69.210938 223.324219 75.488281 214.019531 84.675781 211.09375 C 86.546875 210.5 88.496094 210.179688 90.472656 210.136719 L 90.652344 210.136719 C 90.777344 210.132812 90.902344 210.132812 91.027344 210.132812 C 91.105469 210.136719 91.179688 210.136719 91.257812 210.136719 L 91.546875 210.136719 C 94.867188 210.164062 103.683594 210.230469 110.273438 218.332031 C 110.507812 218.617188 110.765625 218.859375 111.046875 219.0625 C 111.289062 226.464844 113.914062 232.753906 118.609375 236.980469 C 113.851562 242.117188 103.910156 255.539062 105.003906 277.222656 Z M 117.625 200.164062 C 115.34375 202.386719 113.472656 205.160156 112.34375 208.546875 C 104.136719 201.5625 94.941406 201.492188 91.601562 201.464844 L 91.222656 201.464844 C 91.222656 201.464844 91.203125 201.460938 91.195312 201.460938 C 90.988281 201.460938 90.78125 201.460938 90.574219 201.464844 C 90.492188 201.464844 90.414062 201.464844 90.320312 201.464844 C 87.851562 201.511719 85.40625 201.890625 83.050781 202.578125 C 73.089844 202.21875 64.929688 193.332031 64.746094 182.511719 C 64.605469 173.972656 68.378906 163.625 79.476562 162.585938 C 82.007812 162.347656 84.28125 162.558594 86.273438 163.09375 C 86.976562 163.664062 87.8125 163.945312 88.644531 163.949219 C 92.550781 165.742188 94.960938 168.953125 95.542969 172.316406 C 96.308594 176.710938 93.914062 180.230469 89.136719 181.742188 C 87.007812 182.414062 85.789062 184.820312 86.410156 187.117188 C 87.035156 189.414062 89.265625 190.734375 91.394531 190.0625 C 101.488281 186.878906 104.71875 178.050781 103.441406 170.714844 C 102.328125 164.292969 97.71875 158.144531 90.378906 155.363281 C 90.335938 155.316406 90.289062 155.265625 90.25 155.21875 C 90.234375 155.203125 90.21875 155.183594 90.203125 155.164062 C 90.074219 155.019531 89.949219 154.867188 89.816406 154.710938 C 88.589844 153.210938 87.558594 151.542969 86.753906 149.742188 C 85.480469 146.90625 84.804688 143.847656 84.753906 140.65625 C 84.660156 134.828125 86.667969 129.300781 90.421875 125.109375 C 94.167969 120.910156 99.207031 118.542969 104.609375 118.4375 C 106.476562 118.402344 108.328125 118.636719 110.121094 119.144531 C 116.105469 120.84375 121.132812 125.527344 123.574219 131.691406 C 124.601562 134.269531 125.144531 137.023438 125.1875 139.871094 C 125.25 143.417969 124.503906 146.902344 123.054688 150.027344 C 119.4375 146.464844 115.144531 143.820312 110.410156 142.273438 C 108.285156 141.582031 106.042969 142.875 105.402344 145.167969 C 104.757812 147.460938 105.960938 149.878906 108.085938 150.574219 C 112.984375 152.171875 117.257812 155.320312 120.445312 159.6875 C 120.453125 159.691406 120.453125 159.699219 120.460938 159.707031 C 123.847656 164.34375 125.691406 169.929688 125.789062 175.855469 C 125.914062 183.28125 122.066406 194.390625 117.625 200.164062 Z M 117.625 200.164062 " fill-opacity="1" fill-rule="nonzero"/></g><path fill="#ed9b57" d="M 186.046875 87.964844 C 185.699219 90.296875 185.171875 92.554688 184.472656 94.710938 L 189.941406 94.710938 L 194.027344 89.023438 C 194.4375 86.175781 194.621094 83.253906 194.574219 80.289062 C 194.558594 79.371094 194.515625 78.460938 194.457031 77.566406 L 186.238281 87.964844 Z M 186.046875 87.964844 " fill-opacity="1" fill-rule="nonzero"/><path fill="#ed9b57" d="M 193.703125 262.976562 L 188.023438 262.976562 C 188.308594 266.808594 188.167969 269.582031 188.132812 270.148438 C 187.945312 273.1875 187.296875 279.148438 185.105469 285.039062 L 189.6875 294.582031 C 194.265625 286.546875 195.738281 277.3125 196.148438 270.726562 C 196.1875 270.0625 196.257812 268.554688 196.226562 266.472656 Z M 193.703125 262.976562 " fill-opacity="1" fill-rule="nonzero"/></svg>